<?xml version="1.0" encoding="utf-8"?>
<!-- Generator: Adobe Illustrator 18.0.0, SVG Export Plug-In . SVG Version: 6.00 Build 0)  -->
<!DOCTYPE svg PUBLIC "-//W3C//DTD SVG 1.1//EN" "http://www.w3.org/Graphics/SVG/1.1/DTD/svg11.dtd">
<svg version="1.1" id="Capa_1" xmlns="http://www.w3.org/2000/svg" xmlns:xlink="http://www.w3.org/1999/xlink" x="0px" y="0px"
	 viewBox="0 0 340.2 340.2" enable-background="new 0 0 340.2 340.2" xml:space="preserve">
<g>
	<g>
		<path fill="#0567B5" d="M326.9,193.7c7.3,0,13.3-5.9,13.3-13.3v-87c0-29.3-23.8-53.2-53.1-53.2H53.2C23.8,40.2,0,64,0,93.3v153.5
			C0,276.1,23.8,300,53.2,300H287c29.3,0,53.1-23.8,53.1-53.1c0-7.3-5.9-13.3-13.3-13.3s-13.3,5.9-13.3,13.3
			c0,14.7-11.9,26.6-26.6,26.6H53.2c-14.7,0-26.6-11.9-26.6-26.6V96.2L142,167.9c8.7,5.4,18.4,8.1,28.1,8.1s19.4-2.7,28.1-8.1
			l115.4-71.8v84.2C313.6,187.7,319.5,193.7,326.9,193.7z M184.1,145.4c-8.7,5.4-19.4,5.4-28.1,0L37.7,71.8c4.4-3.1,9.7-5,15.5-5
			H287c5.8,0,11.1,1.9,15.5,5L184.1,145.4z"/>
	</g>
</g>
<rect y="338.3" opacity="3.000000e-002" fill="#FFFFFF" width="1.8" height="1.8"/>
<rect x="338.4" y="0" opacity="3.000000e-002" fill="#FFFFFF" width="1.8" height="1.8"/>
</svg>
