<?xml version="1.0" encoding="iso-8859-1"?>
<!-- Generator: Adobe Illustrator 19.0.0, SVG Export Plug-In . SVG Version: 6.00 Build 0)  -->
<svg xmlns="http://www.w3.org/2000/svg" xmlns:xlink="http://www.w3.org/1999/xlink" version="1.1" id="Layer_1" x="0px" y="0px" viewBox="0 0 512 512" style="enable-background:new 0 0 512 512;" xml:space="preserve" width="512" height="512">
<path d="M492,222c11.046,0,20-8.954,20-20V50c0-6.28-2.95-12.196-7.967-15.976c-5.018-3.777-11.519-4.98-17.555-3.247  c-23.165,6.653-52.691,4.775-90.074,2.398C372.997,31.688,346.467,30,316,30c-23.877,0-45.329,10.528-60,27.169  C241.329,40.528,219.877,30,196,30c-30.467,0-56.997,1.688-80.404,3.176c-37.382,2.378-66.91,4.255-90.074-2.398  c-6.038-1.732-12.538-0.53-17.555,3.247C2.95,37.804,0,43.72,0,50v331.796c-0.055,21.407,8.241,41.544,23.358,56.7  C38.477,453.652,58.592,462,80,462h156c0,11.046,8.954,20,20,20s20-8.954,20-20h156c44.112,0,80-35.888,80-80v-80  c0-11.046-8.954-20-20-20s-20,8.954-20,20c0,22.056-17.944,40-40,40H286c-3.424,0-6.768,0.347-10,1.006V110  c0-22.056,17.944-40,40-40c29.196,0,55.053,1.645,77.865,3.095c29.834,1.897,55.131,3.507,78.135,1.01V202  C472,213.046,480.954,222,492,222z M40,74.105c23.003,2.495,48.302,0.888,78.135-1.01C140.948,71.645,166.804,70,196,70  c22.056,0,40,17.944,40,40v233.006c-3.232-0.659-6.576-1.006-10-1.006H80c-22.056,0-40-17.944-40-40V74.105z M80,422  c-10.704,0-20.762-4.174-28.321-11.752C44.12,402.67,39.973,392.602,40,381.847v-10.609C51.777,378.068,65.434,382,80,382h146  c5.514,0,10,4.486,10,10v30H80z M286,382h146c14.566,0,28.223-3.932,40-10.763V382c0,22.056-17.944,40-40,40H276v-30  C276,386.486,280.487,382,286,382z M395,200v88c0,11.046-8.954,20-20,20s-20-8.954-20-20v-88c0-11.046,8.954-20,20-20  S395,188.954,395,200z M395,131c0,11.046-8.954,20-20,20s-20-8.954-20-20s8.954-20,20-20S395,119.954,395,131z"/>















</svg>
