<?xml version="1.0" encoding="iso-8859-1"?>
<!-- Generator: Adobe Illustrator 19.0.0, SVG Export Plug-In . SVG Version: 6.00 Build 0)  -->
<svg version="1.1" id="Capa_1" xmlns="http://www.w3.org/2000/svg" xmlns:xlink="http://www.w3.org/1999/xlink" x="0px" y="0px"
	 viewBox="0 0 512 512" style="enable-background:new 0 0 512 512;" xml:space="preserve">
<g>
	<g>
		<g>
			<path d="M359.056,391h-96c-11.046,0-20,8.954-20,20c0,11.046,8.954,20,20,20h96c11.046,0,20-8.954,20-20
				C379.056,399.954,370.102,391,359.056,391z"/>
			<path d="M438.945,412c-11.046,0-20,8.954-20,20c0,22.056-17.944,40-40,40H133.056c-22.056,0-40-17.944-40-40V80
				c0-22.056,17.944-40,40-40h245.889c22.056,0,40,17.944,40,40v252c-0.001,11.046,8.953,20,19.999,20c11.046,0,20-8.954,20-20V80
				c0-44.112-35.888-80-80-80H133.056c-44.112,0-80,35.888-80,80v352c0,44.112,35.888,80,80,80h245.889c44.112,0,80-35.888,80-80
				C458.945,420.954,449.991,412,438.945,412z"/>
			<path d="M379.056,101c0-11.046-8.954-20-20-20h-206c-11.046,0-20,8.954-20,20v233c0,11.046,8.954,20,20,20h206
				c11.046,0,20-8.954,20-20V101z M236.056,314h-63v-37h63V314z M236.056,237h-63v-38h63V237z M339.056,314h-63v-37h63V314z
				 M339.056,237h-63v-38h63V237z M339.056,159h-166v-38h166V159z"/>
		</g>
	</g>
</g>
<g>
</g>
<g>
</g>
<g>
</g>
<g>
</g>
<g>
</g>
<g>
</g>
<g>
</g>
<g>
</g>
<g>
</g>
<g>
</g>
<g>
</g>
<g>
</g>
<g>
</g>
<g>
</g>
<g>
</g>
</svg>
