<?xml version="1.0" encoding="utf-8"?>
<!-- Generator: Adobe Illustrator 18.0.0, SVG Export Plug-In . SVG Version: 6.00 Build 0)  -->
<!DOCTYPE svg PUBLIC "-//W3C//DTD SVG 1.1//EN" "http://www.w3.org/Graphics/SVG/1.1/DTD/svg11.dtd">
<svg version="1.1" id="Capa_1" xmlns="http://www.w3.org/2000/svg" xmlns:xlink="http://www.w3.org/1999/xlink" x="0px" y="0px"
	 viewBox="0 0 1920 1080" enable-background="new 0 0 1920 1080" xml:space="preserve">
<g>
	<g>
		<path fill="#0064B4" d="M1403.3,510.2c16.4,16.4,16.4,43.2,0,59.7l-369.8,370.7c-16.5,16.5-16.4,43.2,0.1,59.7
			c16.5,16.5,43.2,16.4,59.7-0.1L1463,629.5c49.3-49.3,49.3-129.6,0-179L1093.3,79.9c-8.2-8.3-19.1-12.4-29.9-12.4
			c-10.8,0-21.6,4.1-29.8,12.3c-16.5,16.5-16.5,43.2-0.1,59.7L1403.3,510.2z"/>
	</g>
</g>
<g>
	<g>
		<path fill="#0064B4" d="M462.2,582.2h765.7c23.3,0,42.2-18.9,42.2-42.2c0-23.3-18.9-42.2-42.2-42.2H462.2
			c-23.3,0-42.2,18.9-42.2,42.2S438.9,582.2,462.2,582.2z"/>
	</g>
</g>
</svg>
