<?xml version="1.0" encoding="iso-8859-1"?>
<!-- Generator: Adobe Illustrator 19.0.0, SVG Export Plug-In . SVG Version: 6.00 Build 0)  -->
<svg xmlns="http://www.w3.org/2000/svg" xmlns:xlink="http://www.w3.org/1999/xlink" version="1.1" id="Layer_1" x="0px" y="0px" viewBox="0 0 512 512" style="enable-background:new 0 0 512 512;" xml:space="preserve" width="512" height="512">
<path d="M450.514,492c0,11.046-8.954,20-20,20h-351c-33.084,0-60-26.916-60-60V60c0-33.084,26.916-60,60-60h351  c11.046,0,20,8.954,20,20v103c0,11.046-8.954,20-20,20s-20-8.954-20-20V40h-331c-11.028,0-20,8.972-20,20v335.44  c6.26-2.22,12.989-3.44,20-3.44h20V100c0-11.046,8.954-20,20-20s20,8.954,20,20v292h170c11.046,0,20,8.954,20,20s-8.954,20-20,20  h-230c-11.028,0-20,8.972-20,20s8.972,20,20,20h351C441.56,472,450.514,480.954,450.514,492z M475.376,414.862  C464.324,425.913,449.63,432,434.001,432c-15.604,0-30.275-6.067-41.321-17.085l-67.303-66.245  c-13.807,6.024-29.302,9.148-40.362,9.167c-0.054,0-0.112,0-0.167,0c-31.608,0.002-59.897-14.771-79.681-41.61  c-16.352-22.184-25.701-51.994-25.653-81.789c0.02-11.463,2.121-23.195,6.425-35.869c2.224-6.548,7.672-11.483,14.407-13.049  c6.734-1.566,13.803,0.458,18.688,5.353l48.922,49.027l25.516-5.788l6.023-25.953l-48.181-49.198  c-4.813-4.915-6.763-11.959-5.161-18.65c1.602-6.691,6.529-12.089,13.047-14.291c12.097-4.088,23.139-6.001,34.751-6.021  c0.075,0,0.155,0,0.229,0c35.887,0,71.12,13.821,94.298,37c18.932,18.931,28.916,42.619,28.873,68.501  c-0.021,12.103-3.839,27.141-9.798,40.154l67.678,66.314c0.049,0.047,0.097,0.095,0.146,0.143  C498.19,354.927,498.19,392.048,475.376,414.862z M447.151,360.458l-78.546-76.965c-7.072-6.93-8.01-17.99-2.205-26.011  c6.251-8.638,10.937-24.044,10.95-32.048c0.025-15.232-5.747-28.741-17.157-40.151c-12.65-12.65-30.935-21.223-50.776-24.161  l26.328,26.884c4.779,4.88,6.737,11.862,5.193,18.516l-11.338,48.844c-1.733,7.467-7.582,13.286-15.059,14.982l-48.516,11.005  c-6.704,1.521-13.725-0.511-18.581-5.378l-26.968-27.026c2.199,16.251,8.086,31.602,16.888,43.543  c8.526,11.566,23.683,25.344,47.482,25.344c0.034,0,0.066,0,0.101,0c8.597-0.015,23.947-4.164,32.229-10.097  c3.503-2.509,7.582-3.74,11.641-3.74c5.104,0,10.174,1.945,14.035,5.746l77.945,76.72c0.038,0.037,0.075,0.074,0.113,0.111  c3.496,3.497,8.146,5.423,13.09,5.423s9.594-1.926,13.09-5.423C454.289,379.38,454.309,367.681,447.151,360.458z"/>















</svg>
