<?xml version="1.0" encoding="iso-8859-1"?>
<!-- Generator: Adobe Illustrator 19.0.0, SVG Export Plug-In . SVG Version: 6.00 Build 0)  -->
<svg version="1.1" id="Capa_1" xmlns="http://www.w3.org/2000/svg" xmlns:xlink="http://www.w3.org/1999/xlink" x="0px" y="0px"
	 viewBox="0 0 512 512" style="enable-background:new 0 0 512 512;" xml:space="preserve">
<g>
	<g>
		<g>
			<path d="M198.043,300.121v0.001c28.221,0,52.916-20.046,58.718-47.665l14.333-68.224c1.239-5.897-0.247-12.038-4.045-16.717
				c-3.797-4.678-9.502-7.395-15.528-7.395H85.073c-6.263-30.64-33.255-53.08-65.073-53.08c-11.046,0-20,8.954-20,20
				c0,11.046,8.954,20,20,20c13.458,0,24.754,10.084,26.275,23.456c0.082,0.714,0.201,1.423,0.358,2.124l2.28,10.148
				c0,0.001,0,0.002,0.001,0.002l15.839,70.502c6.197,27.583,30.27,46.848,58.541,46.848H198.043z M103.781,244.506l-9.972-44.384
				h133.073l-9.267,44.111c-1.934,9.207-10.166,15.889-19.573,15.889h-74.749C113.871,260.122,105.847,253.7,103.781,244.506z"/>
			<path d="M432,0H238c-44.112,0-80,35.888-80,80c0,11.046,8.954,20,20,20s20-8.954,20-20c0-22.056,17.944-40,40-40h194
				c22.056,0,40,17.944,40,40v252.122c0,11.046,8.954,20,20,20c11.046,0,20-8.954,20-20V80C512,35.888,476.112,0,432,0z"/>
			<circle cx="201" cy="340.122" r="20"/>
			<path d="M375,91.122c0-11.046-8.954-20-20-20h-40c-11.046,0-20,8.954-20,20c0,11.046,8.954,20,20,20h40
				C366.046,111.122,375,102.168,375,91.122z"/>
			<circle cx="120" cy="340.122" r="20"/>
			<circle cx="335" cy="421.122" r="20"/>
			<path d="M492,412c-11.046,0-20,8.954-20,20c0,22.056-17.944,40-40,40H238c-22.056,0-40-17.944-40-40c0-11.046-8.954-20-20-20
				s-20,8.954-20,20c0,44.112,35.888,80,80,80h194c44.112,0,80-35.888,80-80C512,420.954,503.046,412,492,412z"/>
		</g>
	</g>
</g>
<g>
</g>
<g>
</g>
<g>
</g>
<g>
</g>
<g>
</g>
<g>
</g>
<g>
</g>
<g>
</g>
<g>
</g>
<g>
</g>
<g>
</g>
<g>
</g>
<g>
</g>
<g>
</g>
<g>
</g>
</svg>
