<?xml version="1.0" encoding="utf-8"?>
<!-- Generator: Adobe Illustrator 18.0.0, SVG Export Plug-In . SVG Version: 6.00 Build 0)  -->
<!DOCTYPE svg PUBLIC "-//W3C//DTD SVG 1.1//EN" "http://www.w3.org/Graphics/SVG/1.1/DTD/svg11.dtd">
<svg version="1.1" id="Capa_1" xmlns="http://www.w3.org/2000/svg" xmlns:xlink="http://www.w3.org/1999/xlink" x="0px" y="0px"
	 viewBox="0 0 1920 1080" enable-background="new 0 0 1920 1080" xml:space="preserve">
<g>
	<g>
		<g>
			<path fill="#1671BA" d="M1415.6,175.1h-255.2v-48.5c0-69.8-56.8-126.6-126.6-126.6H886.2c-69.8,0-126.6,56.8-126.6,126.6v48.5
				H504.4c-23.3,0-42.2,18.9-42.2,42.2s18.9,42.2,42.2,42.2h43.7L599.5,926c0,0.2,0,0.4,0,0.6c3.8,42,23.1,80.8,54.3,109.3
				c31.2,28.5,71.6,44.1,113.8,44.1h384.8c87.9,0,160.1-65.5,168.1-152.3c2.1-23.2-15-43.7-38.2-45.8c-23.2-2.1-43.7,15-45.8,38.2
				c-3.9,43.1-40,75.5-84,75.5H767.6c-43.8,0-79.9-32.8-84-76.4l-50.9-659.7h654.6l-36,467.1c-1.8,23.2,15.6,43.5,38.8,45.3
				c1.1,0.1,2.2,0.1,3.3,0.1c21.8,0,40.3-16.8,42-38.9l36.5-473.6h43.7c23.3,0,42.2-18.9,42.2-42.2S1438.9,175.1,1415.6,175.1z
				 M1076,175.1H844v-48.5c0-23.3,18.9-42.2,42.2-42.2h147.7c23.3,0,42.2,18.9,42.2,42.2V175.1z"/>
			<path fill="#1671BA" d="M768.3,343.9c-23.3,1-41.3,20.7-40.3,44l21.1,482.9c1,22.7,19.7,40.3,42.1,40.3c0.6,0,1.2,0,1.9,0
				c23.3-1,41.3-20.7,40.3-44l-21.1-482.9C811.3,360.9,791.6,342.8,768.3,343.9z"/>
			<path fill="#1671BA" d="M1107.7,384.2l-21.1,482.9c-1,23.3,17,43,40.3,44c0.6,0,1.3,0,1.9,0c22.5,0,41.1-17.7,42.1-40.3
				l21.1-482.9c1-23.3-17-43-40.3-44C1128.4,342.8,1108.7,360.9,1107.7,384.2z"/>
			<path fill="#1671BA" d="M917.8,386v482.9c0,23.3,18.9,42.2,42.2,42.2c23.3,0,42.2-18.9,42.2-42.2V386c0-23.3-18.9-42.2-42.2-42.2
				S917.8,362.7,917.8,386z"/>
		</g>
	</g>
</g>
</svg>
