<svg height="512pt" viewBox="0 0 512 512" width="512pt" xmlns="http://www.w3.org/2000/svg"><path d="m492 292c11.046875 0 20-8.953125 20-20v-192c0-44.113281-35.886719-80-80-80h-352c-44.113281 0-80 35.886719-80 80v412c0 11.046875 8.953125 20 20 20s20-8.953125 20-20v-20h432v20c0 11.046875 8.953125 20 20 20s20-8.953125 20-20v-120c0-11.046875-8.953125-20-20-20h-215v-312h155c22.054688 0 40 17.945312 40 40v192c0 11.046875 8.953125 20 20 20zm-452 140v-40h432v40zm197-80h-197v-272c0-22.054688 17.945312-40 40-40h157zm-79-123v-40c0-11.046875 8.953125-20 20-20s20 8.953125 20 20v40c0 11.046875-8.953125 20-20 20s-20-8.953125-20-20zm179-60c11.046875 0 20 8.953125 20 20v40c0 11.046875-8.953125 20-20 20s-20-8.953125-20-20v-40c0-11.046875 8.953125-20 20-20zm0 0"/></svg>